<?xml version="1.0" encoding="UTF-8" standalone="no"?>
<!-- Generator: Adobe Illustrator 19.0.0, SVG Export Plug-In . SVG Version: 6.00 Build 0)  -->

<svg
   xmlns:dc="http://purl.org/dc/elements/1.1/"
   xmlns:cc="http://creativecommons.org/ns#"
   xmlns:rdf="http://www.w3.org/1999/02/22-rdf-syntax-ns#"
   xmlns:svg="http://www.w3.org/2000/svg"
   xmlns="http://www.w3.org/2000/svg"
   xmlns:sodipodi="http://sodipodi.sourceforge.net/DTD/sodipodi-0.dtd"
   xmlns:inkscape="http://www.inkscape.org/namespaces/inkscape"
   version="1.1"
   id="Layer_1"
   x="0px"
   y="0px"
   viewBox="0 0 512.009 512.009"
   style="enable-background:new 0 0 512.009 512.009;"
   xml:space="preserve"
   sodipodi:docname="dashboard-svgrepo-com.svg"
   inkscape:version="0.92.5 (2060ec1f9f, 2020-04-08)"><metadata
   id="metadata47"><rdf:RDF><cc:Work
       rdf:about=""><dc:format>image/svg+xml</dc:format><dc:type
         rdf:resource="http://purl.org/dc/dcmitype/StillImage" /></cc:Work></rdf:RDF></metadata><defs
   id="defs45" /><sodipodi:namedview
   pagecolor="#ffffff"
   bordercolor="#666666"
   borderopacity="1"
   objecttolerance="10"
   gridtolerance="10"
   guidetolerance="10"
   inkscape:pageopacity="0"
   inkscape:pageshadow="2"
   inkscape:window-width="785"
   inkscape:window-height="480"
   id="namedview43"
   showgrid="false"
   inkscape:zoom="0.32592632"
   inkscape:cx="208.59095"
   inkscape:cy="198.92708"
   inkscape:window-x="0"
   inkscape:window-y="27"
   inkscape:window-maximized="0"
   inkscape:current-layer="Layer_1" />
<g
   id="g10"
   style="fill:#ffffff">
	<g
   id="g8"
   style="fill:#ffffff">
		<g
   id="g6"
   style="fill:#ffffff">
			<path
   d="m 256.009,42.671 c -0.002,0 -0.005,0 -0.007,0 -0.001,0 -0.001,0 -0.002,0 -0.001,0 -0.002,0 -0.003,0 -70.671,0.003 -134.648,28.637 -180.967,74.935 -0.016,0.016 -0.034,0.029 -0.05,0.045 -0.017,0.017 -0.03,0.035 -0.047,0.052 -46.245,46.273 -74.861,110.164 -74.922,180.742 0,0.076 -0.011,0.15 -0.011,0.226 0,0.073 0.01,0.143 0.011,0.215 0.05,60.201 20.962,117.239 58.515,162.704 4.053,4.907 10.084,7.748 16.448,7.748 h 95.693 170.667 95.688 c 6.364,0 12.395,-2.841 16.448,-7.748 37.607,-45.53 58.539,-102.65 58.539,-162.919 0,-141.382 -114.618,-256 -256,-256 z m -58.302,384 c 7.376,-12.754 21.165,-21.333 36.96,-21.333 h 42.667 c 15.795,0 29.584,8.579 36.96,21.333 z m 228.973,0 h -66.702 c -9.472,-36.807 -42.88,-64 -82.645,-64 h -42.667 c -39.765,0 -73.173,27.193 -82.645,64 H 85.316 C 62.035,395.694 47.604,359.01 43.733,320.004 h 62.934 c 11.782,0 21.333,-9.551 21.333,-21.333 0,-11.782 -9.551,-21.333 -21.333,-21.333 H 43.734 c 4.259,-42.905 21.23,-82.066 47.091,-113.671 l 14.32,14.32 c 8.331,8.331 21.839,8.331 30.17,0 8.331,-8.331 8.331,-21.839 0,-30.17 l -14.321,-14.321 c 31.605,-25.864 70.765,-42.837 113.672,-47.098 v 62.941 c 0,11.782 9.551,21.333 21.333,21.333 11.782,0 21.333,-9.551 21.333,-21.333 V 86.396 c 42.906,4.259 82.068,21.232 113.676,47.096 l -14.325,14.325 c -8.331,8.331 -8.331,21.839 0,30.17 8.331,8.331 21.839,8.331 30.17,0 l 14.326,-14.326 c 25.867,31.607 42.842,70.771 47.103,113.677 h -62.95 c -11.782,0 -21.333,9.551 -21.333,21.333 0,11.782 9.551,21.333 21.333,21.333 h 62.95 c -3.873,38.997 -18.312,75.682 -41.602,106.667 z"
   id="path2"
   inkscape:connector-curvature="0"
   style="fill:#ffffff" />
			<polygon
   points="319.989,220.655 199.328,281.007 259.659,341.338 "
   id="polygon4"
   style="fill:#ffffff" />
		</g>
	</g>
</g>
<g
   id="g12">
</g>
<g
   id="g14">
</g>
<g
   id="g16">
</g>
<g
   id="g18">
</g>
<g
   id="g20">
</g>
<g
   id="g22">
</g>
<g
   id="g24">
</g>
<g
   id="g26">
</g>
<g
   id="g28">
</g>
<g
   id="g30">
</g>
<g
   id="g32">
</g>
<g
   id="g34">
</g>
<g
   id="g36">
</g>
<g
   id="g38">
</g>
<g
   id="g40">
</g>
</svg>