<?xml version="1.0" encoding="UTF-8" standalone="no"?>
<!-- Generator: Adobe Illustrator 19.0.0, SVG Export Plug-In . SVG Version: 6.00 Build 0)  -->

<svg
   xmlns:dc="http://purl.org/dc/elements/1.1/"
   xmlns:cc="http://creativecommons.org/ns#"
   xmlns:rdf="http://www.w3.org/1999/02/22-rdf-syntax-ns#"
   xmlns:svg="http://www.w3.org/2000/svg"
   xmlns="http://www.w3.org/2000/svg"
   xmlns:sodipodi="http://sodipodi.sourceforge.net/DTD/sodipodi-0.dtd"
   xmlns:inkscape="http://www.inkscape.org/namespaces/inkscape"
   version="1.1"
   id="Capa_1"
   x="0px"
   y="0px"
   viewBox="0 0 384.971 384.971"
   style="enable-background:new 0 0 384.971 384.971;"
   xml:space="preserve"
   sodipodi:docname="logout.svg"
   inkscape:version="0.92.5 (2060ec1f9f, 2020-04-08)"><metadata
   id="metadata56"><rdf:RDF><cc:Work
       rdf:about=""><dc:format>image/svg+xml</dc:format><dc:type
         rdf:resource="http://purl.org/dc/dcmitype/StillImage" /></cc:Work></rdf:RDF></metadata><defs
   id="defs54" /><sodipodi:namedview
   pagecolor="#ffffff"
   bordercolor="#666666"
   borderopacity="1"
   objecttolerance="10"
   gridtolerance="10"
   guidetolerance="10"
   inkscape:pageopacity="0"
   inkscape:pageshadow="2"
   inkscape:window-width="1920"
   inkscape:window-height="1016"
   id="namedview52"
   showgrid="false"
   inkscape:zoom="0.43347992"
   inkscape:cx="-772.55186"
   inkscape:cy="101.26886"
   inkscape:window-x="0"
   inkscape:window-y="27"
   inkscape:window-maximized="1"
   inkscape:current-layer="Capa_1" />
<g
   id="g19"
   style="fill:#ffffff">
	<g
   id="Sign_Out"
   style="fill:#ffffff">
		<path
   d="M 180.455,360.91 H 24.061 V 24.061 h 156.394 c 6.641,0 12.03,-5.39 12.03,-12.03 0,-6.64 -5.39,-12.03 -12.03,-12.03 H 12.03 C 5.39,0.001 0,5.39 0,12.031 V 372.94 c 0,6.641 5.39,12.03 12.03,12.03 h 168.424 c 6.641,0 12.03,-5.39 12.03,-12.03 0.001,-6.641 -5.389,-12.03 -12.029,-12.03 z"
   id="path2"
   inkscape:connector-curvature="0"
   style="fill:#ffffff" />
		<path
   d="m 381.481,184.088 -83.009,-84.2 c -4.704,-4.752 -12.319,-4.74 -17.011,0 -4.704,4.74 -4.704,12.439 0,17.179 l 62.558,63.46 H 96.279 c -6.641,0 -12.03,5.438 -12.03,12.151 0,6.713 5.39,12.151 12.03,12.151 h 247.74 l -62.558,63.46 c -4.704,4.752 -4.704,12.439 0,17.179 4.704,4.752 12.319,4.752 17.011,0 l 82.997,-84.2 c 4.644,-4.68 4.692,-12.512 0.012,-17.18 z"
   id="path4"
   inkscape:connector-curvature="0"
   style="fill:#ffffff" />
	</g>
	<g
   id="g7"
   style="fill:#ffffff">
	</g>
	<g
   id="g9"
   style="fill:#ffffff">
	</g>
	<g
   id="g11"
   style="fill:#ffffff">
	</g>
	<g
   id="g13"
   style="fill:#ffffff">
	</g>
	<g
   id="g15"
   style="fill:#ffffff">
	</g>
	<g
   id="g17"
   style="fill:#ffffff">
	</g>
</g>
<g
   id="g21">
</g>
<g
   id="g23">
</g>
<g
   id="g25">
</g>
<g
   id="g27">
</g>
<g
   id="g29">
</g>
<g
   id="g31">
</g>
<g
   id="g33">
</g>
<g
   id="g35">
</g>
<g
   id="g37">
</g>
<g
   id="g39">
</g>
<g
   id="g41">
</g>
<g
   id="g43">
</g>
<g
   id="g45">
</g>
<g
   id="g47">
</g>
<g
   id="g49">
</g>
</svg>